<svg width="37" height="36" viewBox="0 0 37 36" fill="none" xmlns="http://www.w3.org/2000/svg">
<path d="M16.85 3.15C9.95001 3.9 4.40001 9.45 3.65001 16.2C2.90001 23.25 6.95001 29.55 13.1 31.95C13.55 32.1 14 31.8 14 31.2V28.8C14 28.8 13.4 28.95 12.65 28.95C10.55 28.95 9.65001 27.15 9.50001 26.1C9.35001 25.5 9.05001 25.05 8.60001 24.6C8.15001 24.45 8.00001 24.45 8.00001 24.3C8.00001 24 8.45001 24 8.60001 24C9.50001 24 10.25 25.05 10.55 25.5C11.3 26.7 12.2 27 12.65 27C13.25 27 13.7 26.85 14 26.7C14.15 25.65 14.6 24.6 15.5 24C12.05 23.25 9.50001 21.3 9.50001 18C9.50001 16.35 10.25 14.7 11.3 13.5C11.15 13.2 11 12.45 11 11.4C11 10.8 11 9.9 11.45 9C11.45 9 13.55 9 15.65 10.95C16.4 10.65 17.45 10.5 18.5 10.5C19.55 10.5 20.6 10.65 21.5 10.95C23.45 9 25.7 9 25.7 9C26 9.9 26 10.8 26 11.4C26 12.6 25.85 13.2 25.7 13.5C26.75 14.7 27.5 16.2 27.5 18C27.5 21.3 24.95 23.25 21.5 24C22.4 24.75 23 26.1 23 27.45V31.35C23 31.8 23.45 32.25 24.05 32.1C29.6 29.85 33.5 24.45 33.5 18.15C33.5 9.15 25.85 2.1 16.85 3.15Z" fill="#333333"/>
</svg>
