<svg style="display: none">

    <symbol id="logo" viewBox="0 0 94 52" xmlns="http://www.w3.org/2000/svg">
        <path d="M23.375 2.54699L20.7855 0.462174C20.3599 0.120476 19.8117 -0.0423397 19.2609 0.00943133C18.7102 0.0612024 18.2019 0.323334 17.8476 0.738343L1.60826 19.8045C1.5639 19.8566 1.53287 19.9194 1.51034 19.9854C1.50739 19.9977 1.50037 20.0103 1.49742 20.0226C1.4941 20.0309 1.4867 20.0396 1.48745 20.0475L0.0131158 26.6276C-0.0329903 26.8356 0.0448392 27.052 0.20918 27.1843C0.329476 27.2848 0.485621 27.33 0.636178 27.3159C0.693145 27.3105 0.753436 27.2968 0.808541 27.2717L7.18607 24.6355C7.19383 24.6308 7.2016 24.626 7.21343 24.6209C7.22527 24.6158 7.23673 24.6068 7.24857 24.6017C7.31106 24.5678 7.36468 24.5268 7.40904 24.4748L23.648 5.40465C24.0025 4.98396 24.1746 4.45661 24.1239 3.91825C24.0732 3.37989 23.8054 2.8899 23.375 2.54699ZM16.2349 4.40825L17.785 5.65628L4.43302 21.336L2.88289 20.088L16.2349 4.40825ZM1.39615 25.7948L2.42564 21.2053L5.84126 23.9552L1.39615 25.7948ZM6.88074 23.3104L5.33061 22.0624L18.6866 6.38221L20.2368 7.63023L6.88074 23.3104ZM22.7467 4.68268L20.9872 6.74901L16.9897 3.5306L18.7493 1.46427C19.0709 1.0866 19.6483 1.02833 20.0392 1.34302L22.6286 3.42783C22.8152 3.57802 22.9341 3.79448 22.9561 4.02803C22.978 4.26158 22.9016 4.4964 22.7467 4.68268Z"/>
        <path d="M74.0642 23.4527V0.705086H76.8007V23.4527H74.0642Z" />
        <path d="M86.5633 30.4832C85.2541 30.4832 83.9878 30.3008 82.7645 29.9362C81.5626 29.5715 80.4788 28.9388 79.513 28.0379L80.7041 25.8821C81.5411 26.5471 82.4318 27.0726 83.3762 27.4587C84.342 27.8448 85.3507 28.0379 86.4023 28.0379C88.1623 28.0379 89.4178 27.5231 90.169 26.4935C90.9416 25.4853 91.3279 24.1983 91.3279 22.6325V20.6055C90.9416 21.1846 90.448 21.6672 89.847 22.0533C89.2676 22.418 88.6237 22.6968 87.9154 22.8899C87.2072 23.0615 86.4775 23.1473 85.7263 23.1473C84.0522 23.1473 82.7323 22.8148 81.7665 22.1499C80.8007 21.4849 80.1139 20.5626 79.7061 19.3828C79.2983 18.2031 79.0944 16.841 79.0944 15.2966V5.9337H81.8309V14.5244C81.8309 15.2966 81.8738 16.0581 81.9597 16.8088C82.067 17.5381 82.2709 18.2031 82.5713 18.8037C82.8718 19.3828 83.3118 19.8547 83.8913 20.2194C84.4707 20.5626 85.2434 20.7342 86.2092 20.7342C87.4325 20.7342 88.4091 20.4339 89.1388 19.8333C89.89 19.2327 90.4265 18.4283 90.7485 17.4201C91.0919 16.412 91.2636 15.2966 91.2636 14.074V5.9337H94V22.8899C94 24.1125 93.839 25.1958 93.5171 26.1395C93.1952 27.0833 92.7123 27.877 92.0684 28.5205C91.4245 29.164 90.6412 29.6466 89.7183 29.9684C88.8169 30.3116 87.7652 30.4832 86.5633 30.4832Z"/>
        <path d="M56.5587 29.1962V6.12676H59.1663L59.2951 8.66857C59.8746 7.78913 60.6579 7.11345 61.6452 6.64155C62.6539 6.16965 63.7378 5.9337 64.8968 5.9337C66.6137 5.9337 68.0195 6.3198 69.1141 7.092C70.2087 7.84275 71.0135 8.87235 71.5286 10.1808C72.0652 11.4892 72.3334 12.9693 72.3334 14.6209C72.3334 16.2726 72.0652 17.7526 71.5286 19.0611C70.992 20.3695 70.1657 21.3991 69.0497 22.1499C67.9337 22.9006 66.5064 23.276 64.768 23.276C63.9095 23.276 63.1368 23.1902 62.4501 23.0186C61.7633 22.8255 61.1623 22.5574 60.6472 22.2142C60.1321 21.8496 59.6814 21.4313 59.2951 20.9594V29.1962H56.5587ZM64.5426 20.8629C65.7874 20.8629 66.7747 20.584 67.5044 20.0263C68.2341 19.4472 68.76 18.6857 69.0819 17.7419C69.4253 16.7981 69.597 15.7578 69.597 14.6209C69.597 13.4626 69.4253 12.4116 69.0819 11.4678C68.76 10.524 68.2234 9.77324 67.4722 9.21555C66.721 8.65785 65.723 8.379 64.4782 8.379C63.3622 8.379 62.4071 8.66857 61.613 9.24772C60.8404 9.80542 60.2502 10.5669 59.8424 11.5321C59.4346 12.4759 59.2307 13.5163 59.2307 14.6531C59.2307 15.8329 59.4239 16.8946 59.8102 17.8384C60.1965 18.7822 60.7867 19.5222 61.5808 20.0585C62.3749 20.5947 63.3622 20.8629 64.5426 20.8629Z"/>
        <path d="M38.8527 29.1962V6.12676H41.4603L41.5891 8.66857C42.1686 7.78913 42.952 7.11345 43.9392 6.64155C44.948 6.16965 46.0318 5.9337 47.1908 5.9337C48.9077 5.9337 50.3135 6.3198 51.4081 7.092C52.5027 7.84275 53.3075 8.87235 53.8226 10.1808C54.3592 11.4892 54.6274 12.9693 54.6274 14.6209C54.6274 16.2726 54.3592 17.7526 53.8226 19.0611C53.286 20.3695 52.4598 21.3991 51.3437 22.1499C50.2277 22.9006 48.8004 23.276 47.062 23.276C46.2035 23.276 45.4309 23.1902 44.7441 23.0186C44.0573 22.8255 43.4563 22.5574 42.9412 22.2142C42.4261 21.8496 41.9754 21.4313 41.5891 20.9594V29.1962H38.8527ZM46.8366 20.8629C48.0814 20.8629 49.0687 20.584 49.7984 20.0263C50.5281 19.4472 51.054 18.6857 51.3759 17.7419C51.7193 16.7981 51.891 15.7578 51.891 14.6209C51.891 13.4626 51.7193 12.4116 51.3759 11.4678C51.054 10.524 50.5174 9.77324 49.7662 9.21555C49.0151 8.65785 48.0171 8.379 46.7722 8.379C45.6562 8.379 44.7011 8.66857 43.907 9.24772C43.1344 9.80542 42.5442 10.5669 42.1364 11.5321C41.7286 12.4759 41.5247 13.5163 41.5247 14.6531C41.5247 15.8329 41.7179 16.8946 42.1042 17.8384C42.4905 18.7822 43.0807 19.5222 43.8748 20.0585C44.6689 20.5947 45.6562 20.8629 46.8366 20.8629Z"/>
        <path d="M28.3733 23.276C27.6007 23.276 26.8495 23.1795 26.1198 22.9864C25.4115 22.7719 24.7676 22.4609 24.1882 22.0533C23.6301 21.6243 23.1794 21.0988 22.836 20.4768C22.5141 19.8333 22.3531 19.0932 22.3531 18.2567C22.3531 17.2914 22.5248 16.4764 22.8682 15.8114C23.2331 15.1465 23.716 14.6209 24.3169 14.2348C24.9179 13.8487 25.6154 13.5699 26.4095 13.3983C27.2036 13.2267 28.0299 13.1409 28.8884 13.1409H33.8784C33.8784 12.1756 33.7389 11.3391 33.4599 10.6312C33.2023 9.92339 32.7731 9.37642 32.1721 8.99032C31.5712 8.58277 30.7771 8.379 29.7898 8.379C29.1889 8.379 28.6309 8.44335 28.1158 8.57205C27.6007 8.70075 27.1607 8.90452 26.7958 9.18337C26.431 9.46222 26.1627 9.83759 25.991 10.3095H23.0614C23.2116 9.5373 23.5014 8.88307 23.9306 8.34682C24.3813 7.78912 24.9179 7.33868 25.5403 6.99548C26.1842 6.63083 26.8709 6.3627 27.6007 6.1911C28.3304 6.0195 29.0601 5.9337 29.7898 5.9337C32.2365 5.9337 33.975 6.65228 35.0052 8.08942C36.0353 9.52657 36.5504 11.4678 36.5504 13.9131V23.0829H34.2647L34.1037 20.9272C33.6316 21.5707 33.0628 22.0641 32.3975 22.4073C31.7322 22.7505 31.0454 22.9757 30.3371 23.0829C29.6503 23.2116 28.9957 23.276 28.3733 23.276ZM28.6309 20.8629C29.704 20.8629 30.6269 20.6913 31.3995 20.3481C32.1936 19.9834 32.8053 19.4579 33.2345 18.7715C33.6638 18.0851 33.8784 17.2486 33.8784 16.2619V15.4253H30.8844C30.1761 15.4253 29.4786 15.436 28.7918 15.4575C28.105 15.4789 27.4826 15.5647 26.9246 15.7149C26.3666 15.865 25.9159 16.1224 25.5725 16.4871C25.2505 16.8517 25.0896 17.3772 25.0896 18.0636C25.0896 18.7071 25.2505 19.2327 25.5725 19.6402C25.9159 20.0478 26.3559 20.3588 26.8924 20.5733C27.4504 20.7663 28.0299 20.8629 28.6309 20.8629Z"/>
        <path d="M74.5795 52C72.7766 52 71.285 51.6354 70.1046 50.9061C68.9242 50.1553 68.0442 49.1257 67.4647 47.8173C66.8853 46.5088 66.5955 45.018 66.5955 43.345C66.5955 41.6504 66.896 40.1596 67.4969 38.8726C68.1193 37.5642 69.0208 36.5346 70.2012 35.7838C71.3816 35.0331 72.8303 34.6577 74.5473 34.6577C75.878 34.6577 77.0154 34.9151 77.9598 35.4299C78.9256 35.9233 79.7197 36.5882 80.3421 37.4248C80.9645 38.2613 81.4152 39.1837 81.6942 40.1918C81.9732 41.1785 82.0913 42.1759 82.0484 43.1841C82.0269 43.3771 82.0054 43.5702 81.984 43.7632C81.984 43.9563 81.9732 44.1493 81.9518 44.3424H69.3642C69.45 45.3291 69.6968 46.2192 70.1046 47.0129C70.5124 47.8065 71.0919 48.4393 71.843 48.9112C72.5942 49.3617 73.5278 49.5869 74.6439 49.5869C75.2019 49.5869 75.7599 49.5225 76.3179 49.3938C76.8974 49.2437 77.4125 48.997 77.8632 48.6538C78.3354 48.3106 78.6681 47.8494 78.8612 47.2703H81.662C81.4045 48.3642 80.9216 49.2651 80.2133 49.973C79.5051 50.6594 78.6573 51.1742 77.6701 51.5174C76.6828 51.8391 75.6526 52 74.5795 52ZM69.4285 41.9614H79.2475C79.2261 40.9962 79.0115 40.1489 78.6037 39.4196C78.1959 38.6903 77.6379 38.1219 76.9296 37.7143C76.2428 37.3068 75.4165 37.103 74.4507 37.103C73.3991 37.103 72.5084 37.3282 71.7787 37.7787C71.0704 38.2291 70.5231 38.819 70.1368 39.5483C69.7505 40.2776 69.5144 41.082 69.4285 41.9614Z"/>
        <path d="M12.9136 51.807V34.8508H15.5535L15.6822 37.4891C16.1115 36.8242 16.6051 36.2879 17.1631 35.8804C17.7426 35.4728 18.3758 35.1725 19.0626 34.9795C19.7708 34.765 20.5327 34.6577 21.3483 34.6577C21.4985 34.6577 21.638 34.6577 21.7668 34.6577C21.917 34.6577 22.0673 34.6577 22.2175 34.6577V37.2317H21.2195C19.8889 37.2317 18.805 37.5213 17.968 38.1004C17.1524 38.6581 16.5622 39.4196 16.1973 40.3849C15.8325 41.3287 15.6501 42.3797 15.6501 43.538V51.807H12.9136Z"/>
        <path d="M83.5941 51.807V34.8508H86.234L86.3628 37.4891C86.792 36.8242 87.2856 36.2879 87.8437 35.8804C88.4231 35.4728 89.0563 35.1725 89.7431 34.9795C90.4513 34.765 91.2132 34.6577 92.0288 34.6577C92.179 34.6577 92.3186 34.6577 92.4473 34.6577C92.5976 34.6577 92.7478 34.6577 92.898 34.6577V37.2317H91.9C90.5694 37.2317 89.4855 37.5213 88.6485 38.1004C87.8329 38.6581 87.2427 39.4196 86.8779 40.3849C86.513 41.3287 86.3306 42.3797 86.3306 43.538V51.807H83.5941Z"/>
        <path d="M27.8428 52C27.0701 52 26.319 51.9035 25.5892 51.7104C24.881 51.4959 24.2371 51.1849 23.6576 50.7774C23.0996 50.3484 22.6489 49.8228 22.3055 49.2008C21.9836 48.5573 21.8226 47.8173 21.8226 46.9807C21.8226 46.0155 21.9943 45.2004 22.3377 44.5354C22.7026 43.8705 23.1855 43.345 23.7864 42.9589C24.3874 42.5728 25.0849 42.2939 25.879 42.1223C26.6731 41.9507 27.4994 41.8649 28.3579 41.8649H33.3479C33.3479 40.8997 33.2084 40.0631 32.9293 39.3553C32.6718 38.6474 32.2425 38.1004 31.6416 37.7143C31.0407 37.3068 30.2466 37.103 29.2593 37.103C28.6583 37.103 28.1003 37.1674 27.5852 37.2961C27.0701 37.4248 26.6302 37.6285 26.2653 37.9074C25.9004 38.1862 25.6322 38.5616 25.4605 39.0335H22.5309C22.6811 38.2613 22.9708 37.6071 23.4001 37.0708C23.8508 36.5131 24.3874 36.0627 25.0098 35.7195C25.6536 35.3549 26.3404 35.0867 27.0701 34.9151C27.7999 34.7435 28.5296 34.6577 29.2593 34.6577C31.706 34.6577 33.4444 35.3763 34.4746 36.8134C35.5048 38.2506 36.0199 40.1918 36.0199 42.6371V51.807H33.7342L33.5732 49.6512C33.101 50.2947 32.5323 50.7881 31.867 51.1313C31.2016 51.4745 30.5148 51.6997 29.8066 51.807C29.1198 51.9357 28.4652 52 27.8428 52ZM28.1003 49.5869C29.1734 49.5869 30.0963 49.4153 30.869 49.0721C31.6631 48.7074 32.2747 48.1819 32.704 47.4955C33.1332 46.8091 33.3479 45.9726 33.3479 44.9859V44.1493H30.3539C29.6456 44.1493 28.9481 44.16 28.2613 44.1815C27.5745 44.2029 26.9521 44.2887 26.3941 44.4389C25.8361 44.589 25.3853 44.8464 25.042 45.2111C24.72 45.5757 24.559 46.1013 24.559 46.7877C24.559 47.4312 24.72 47.9567 25.042 48.3642C25.3853 48.7718 25.8253 49.0828 26.3619 49.2973C26.9199 49.4904 27.4994 49.5869 28.1003 49.5869Z"/>
        <path d="M45.4039 52C43.6225 52 42.1416 51.6354 40.9612 50.9061C39.8022 50.1553 38.933 49.1257 38.3535 47.8173C37.7955 46.5088 37.5165 45.0288 37.5165 43.3771C37.5165 41.7684 37.8062 40.3098 38.3857 39.0013C38.9867 37.6714 39.8881 36.6204 41.09 35.8482C42.3133 35.0545 43.8586 34.6577 45.7258 34.6577C46.8848 34.6577 47.915 34.8508 48.8164 35.2369C49.7393 35.623 50.5012 36.1914 51.1021 36.9421C51.7031 37.6714 52.1216 38.5938 52.3577 39.7092H49.5569C49.2349 38.7654 48.7198 38.1004 48.0116 37.7143C47.3248 37.3068 46.5092 37.103 45.5649 37.103C44.2771 37.103 43.2469 37.4033 42.4743 38.0039C41.7017 38.6045 41.1329 39.3874 40.768 40.3527C40.4246 41.2965 40.253 42.3046 40.253 43.3771C40.253 44.4925 40.4354 45.5221 40.8002 46.4659C41.1651 47.4097 41.7338 48.1712 42.5065 48.7503C43.2791 49.308 44.2771 49.5869 45.5005 49.5869C46.4019 49.5869 47.2497 49.3938 48.0438 49.0077C48.8593 48.6216 49.3959 47.9352 49.6534 46.9485H52.4865C52.2718 48.1068 51.8104 49.0614 51.1021 49.8121C50.4153 50.5629 49.5676 51.1206 48.5589 51.4852C47.5716 51.8284 46.5199 52 45.4039 52Z"/>
        <path d="M53.8156 51.8071V29.0594H56.5521V42.1546H59.5138L64.6004 34.8509H67.691L62.0249 42.9268L68.1739 51.8071H64.9545L59.8358 44.5356H56.5521V51.8071H53.8156Z"/>
        <path d="M9.74176 51.8069C8.45402 51.8069 7.4131 51.6139 6.619 51.2278C5.84635 50.8417 5.2776 50.2411 4.91275 49.426C4.56935 48.6109 4.39765 47.5813 4.39765 46.3372V37.2639H1.62902V34.8507H4.39765V29.7993H7.13409V34.8507H11.6734V37.2639H7.13409V46.0476C7.13409 47.2059 7.33798 48.0639 7.74577 48.6216C8.17501 49.1579 9.0335 49.426 10.3212 49.426H11.5768V51.8069H9.74176Z"/>
    </symbol>

    <symbol id="day-mode" viewBox="0 0 24 24" xmlns="http://www.w3.org/2000/svg">
        <g>
        <path d="M11 5V1H13V5H11ZM17.65 7.75L16.275 6.375L19.075 3.5L20.475 4.925L17.65 7.75ZM19 13V11H23V13H19ZM11 23V19H13V23H11ZM6.35 7.7L3.5 4.925L4.925 3.525L7.75 6.35L6.35 7.7ZM19.05 20.5L16.275 17.625L17.625 16.275L20.475 19.025L19.05 20.5ZM1 13V11H5V13H1ZM4.925 20.5L3.525 19.075L6.325 16.275L7.05 16.95L7.775 17.65L4.925 20.5ZM12 18C10.3333 18 8.91667 17.4167 7.75 16.25C6.58333 15.0833 6 13.6667 6 12C6 10.3333 6.58333 8.91667 7.75 7.75C8.91667 6.58333 10.3333 6 12 6C13.6667 6 15.0833 6.58333 16.25 7.75C17.4167 8.91667 18 10.3333 18 12C18 13.6667 17.4167 15.0833 16.25 16.25C15.0833 17.4167 13.6667 18 12 18Z"/>
        </g>
    </symbol>

    <symbol id="night-mode" viewBox="0 0 24 24" xmlns="http://www.w3.org/2000/svg">
        <g>
        <path d="M9.5002 22C8.91686 22 8.33353 21.9417 7.7502 21.825C7.16686 21.7083 6.60853 21.5333 6.0752 21.3C5.89186 21.2167 5.74186 21.0917 5.6252 20.925C5.50853 20.7583 5.4502 20.575 5.4502 20.375C5.4502 20.225 5.48353 20.0833 5.5502 19.95C5.61686 19.8167 5.71686 19.7 5.8502 19.6C7.01686 18.6833 7.91686 17.5583 8.5502 16.225C9.18353 14.8917 9.5002 13.4833 9.5002 12C9.5002 10.5167 9.17953 9.11233 8.5382 7.787C7.89686 6.46167 6.99253 5.33267 5.8252 4.4C5.70853 4.3 5.61686 4.18333 5.5502 4.05C5.48353 3.91667 5.4502 3.775 5.4502 3.625C5.4502 3.425 5.50453 3.24167 5.6132 3.075C5.72186 2.90833 5.86753 2.78333 6.0502 2.7C6.6002 2.46667 7.16686 2.29167 7.7502 2.175C8.33353 2.05833 8.91686 2 9.5002 2C10.8835 2 12.1835 2.26267 13.4002 2.788C14.6169 3.31333 15.6752 4.02567 16.5752 4.925C17.4752 5.82433 18.1879 6.88267 18.7132 8.1C19.2385 9.31733 19.5009 10.6173 19.5002 12C19.4995 13.3827 19.2369 14.6827 18.7122 15.9C18.1875 17.1173 17.4752 18.1757 16.5752 19.075C15.6752 19.9743 14.6169 20.687 13.4002 21.213C12.1835 21.739 10.8835 22.0013 9.5002 22Z"/>
        </g>
    </symbol>

    <symbol id="GitHub" viewBox="0 0 37 36" xmlns="http://www.w3.org/2000/svg">
        <g>
        <path d="M16.8498 3.14997C9.94977 3.89997 4.39977 9.44997 3.64977 16.2C2.89977 23.25 6.94977 29.55 13.0998 31.95C13.5498 32.1 13.9998 31.8 13.9998 31.2V28.8C13.9998 28.8 13.3998 28.95 12.6498 28.95C10.5498 28.95 9.64977 27.15 9.49977 26.1C9.34977 25.5 9.04977 25.05 8.59977 24.6C8.14977 24.45 7.99977 24.45 7.99977 24.3C7.99977 24 8.44977 24 8.59977 24C9.49977 24 10.2498 25.05 10.5498 25.5C11.2998 26.7 12.1998 27 12.6498 27C13.2498 27 13.6998 26.85 13.9998 26.7C14.1498 25.65 14.5998 24.6 15.4998 24C12.0498 23.25 9.49977 21.3 9.49977 18C9.49977 16.35 10.2498 14.7 11.2998 13.5C11.1498 13.2 10.9998 12.45 10.9998 11.4C10.9998 10.8 10.9998 9.89997 11.4498 8.99997C11.4498 8.99997 13.5498 8.99997 15.6498 10.95C16.3998 10.65 17.4498 10.5 18.4998 10.5C19.5498 10.5 20.5998 10.65 21.4998 10.95C23.4498 8.99997 25.6998 8.99997 25.6998 8.99997C25.9998 9.89997 25.9998 10.8 25.9998 11.4C25.9998 12.6 25.8498 13.2 25.6998 13.5C26.7498 14.7 27.4998 16.2 27.4998 18C27.4998 21.3 24.9498 23.25 21.4998 24C22.3998 24.75 22.9998 26.1 22.9998 27.45V31.35C22.9998 31.8 23.4498 32.25 24.0498 32.1C29.5998 29.85 33.4998 24.45 33.4998 18.15C33.4998 9.14997 25.8498 2.09997 16.8498 3.14997Z"/>
        </g>
    </symbol>

    <symbol id="Google" viewBox="0 0 36 36" fill="none" xmlns="http://www.w3.org/2000/svg">
        <g>
        <path id="Vector" d="M32.7082 15.0622H31.5V15H18V21H26.4772C25.2405 24.4927 21.9172 27 18 27C13.0297 27 9 22.9702 9 18C9 13.0297 13.0297 9 18 9C20.2942 9 22.3815 9.8655 23.9707 11.2792L28.2135 7.0365C25.5345 4.53975 21.951 3 18 3C9.71625 3 3 9.71625 3 18C3 26.2837 9.71625 33 18 33C26.2837 33 33 26.2837 33 18C33 16.9942 32.8965 16.0125 32.7082 15.0622Z" fill="#FFC107"/>
        <path id="Vector_2" d="M4.72949 11.0182L9.65774 14.6325C10.9912 11.331 14.2207 9 18 9C20.2942 9 22.3815 9.8655 23.9707 11.2792L28.2135 7.0365C25.5345 4.53975 21.951 3 18 3C12.2385 3 7.24199 6.25275 4.72949 11.0182Z" fill="#FF3D00"/>
        <path id="Vector_3" d="M18.0002 33C21.8747 33 25.3952 31.5173 28.057 29.106L23.4145 25.1775C21.9085 26.3183 20.0365 27 18.0002 27C14.0987 27 10.786 24.5123 9.53798 21.0405L4.64648 24.8093C7.12898 29.667 12.1705 33 18.0002 33Z" fill="#4CAF50"/>
        <path id="Vector_4" d="M32.7083 15.0623H31.5V15H18V21H26.4773C25.8833 22.6778 24.804 24.1245 23.412 25.1782L23.4142 25.1768L28.0568 29.1052C27.7283 29.4037 33 25.5 33 18C33 16.9943 32.8965 16.0125 32.7083 15.0623Z" fill="#1976D2"/>
        </g>
    </symbol>

    <symbol id="account" viewBox="0 0 40 40" xmlns="http://www.w3.org/2000/svg">
        <g>
        <path d="M9.74968 28.4999C11.1663 27.4166 12.7497 26.5627 14.4997 25.9383C16.2497 25.3138 18.083 25.001 19.9997 24.9999C21.9163 24.9988 23.7497 25.3116 25.4997 25.9383C27.2497 26.5649 28.833 27.4188 30.2497 28.4999C31.2219 27.361 31.9791 26.0694 32.5213 24.6249C33.0636 23.1805 33.3341 21.6388 33.333 19.9999C33.333 16.3055 32.0347 13.1594 29.438 10.5616C26.8413 7.96381 23.6952 6.66547 19.9997 6.66659C16.3041 6.6677 13.158 7.96659 10.5613 10.5633C7.96468 13.1599 6.66634 16.3055 6.66634 19.9999C6.66634 21.6388 6.93745 23.1805 7.47968 24.6249C8.0219 26.0694 8.77856 27.361 9.74968 28.4999ZM19.9997 21.6666C18.3608 21.6666 16.9786 21.1044 15.853 19.9799C14.7275 18.8555 14.1652 17.4733 14.1663 15.8333C14.1675 14.1933 14.7302 12.811 15.8547 11.6866C16.9791 10.5621 18.3608 9.99992 19.9997 9.99992C21.6386 9.99992 23.0208 10.5627 24.1463 11.6883C25.2719 12.8138 25.8341 14.1955 25.833 15.8333C25.8319 17.471 25.2697 18.8533 24.1463 19.9799C23.023 21.1066 21.6408 21.6688 19.9997 21.6666ZM19.9997 36.6666C17.6941 36.6666 15.5275 36.2288 13.4997 35.3533C11.4719 34.4777 9.70801 33.2905 8.20801 31.7916C6.70801 30.2927 5.52079 28.5288 4.64634 26.4999C3.7719 24.471 3.33412 22.3044 3.33301 19.9999C3.3319 17.6955 3.76968 15.5288 4.64634 13.4999C5.52301 11.471 6.71023 9.70714 8.20801 8.20825C9.70579 6.70936 11.4697 5.52214 13.4997 4.64659C15.5297 3.77103 17.6963 3.33325 19.9997 3.33325C22.303 3.33325 24.4697 3.77103 26.4997 4.64659C28.5297 5.52214 30.2936 6.70936 31.7913 8.20825C33.2891 9.70714 34.4769 11.471 35.3547 13.4999C36.2325 15.5288 36.6697 17.6955 36.6663 19.9999C36.663 22.3044 36.2252 24.471 35.353 26.4999C34.4808 28.5288 33.2936 30.2927 31.7913 31.7916C30.2891 33.2905 28.5252 34.4783 26.4997 35.3549C24.4741 36.2316 22.3075 36.6688 19.9997 36.6666ZM19.9997 33.3333C21.4719 33.3333 22.8608 33.1183 24.1663 32.6883C25.4719 32.2583 26.6663 31.6399 27.7497 30.8333C26.6663 30.0277 25.4719 29.4099 24.1663 28.9799C22.8608 28.5499 21.4719 28.3344 19.9997 28.3333C18.5275 28.3321 17.1386 28.5477 15.833 28.9799C14.5275 29.4121 13.333 30.0299 12.2497 30.8333C13.333 31.6388 14.5275 32.2571 15.833 32.6883C17.1386 33.1194 18.5275 33.3344 19.9997 33.3333ZM19.9997 18.3333C20.7219 18.3333 21.3191 18.0971 21.7913 17.6249C22.2636 17.1527 22.4997 16.5555 22.4997 15.8333C22.4997 15.111 22.2636 14.5138 21.7913 14.0416C21.3191 13.5694 20.7219 13.3333 19.9997 13.3333C19.2775 13.3333 18.6802 13.5694 18.208 14.0416C17.7358 14.5138 17.4997 15.111 17.4997 15.8333C17.4997 16.5555 17.7358 17.1527 18.208 17.6249C18.6802 18.0971 19.2775 18.3333 19.9997 18.3333Z"/>
        </g>
    </symbol>

    <symbol id="archive-outline" viewBox="0 0 24 24" xmlns="http://www.w3.org/2000/svg">
        <g>
        <path d="M12 18L16 14L14.6 12.6L13 14.2V10H11V14.2L9.4 12.6L8 14L12 18ZM5 8.00001V19H19V8.00001H5ZM5 21C4.45 21 3.97933 20.8043 3.588 20.413C3.19667 20.0217 3.00067 19.5507 3 19V6.52501C3 6.29167 3.03767 6.06667 3.113 5.85001C3.18833 5.63334 3.30067 5.43334 3.45 5.25001L4.7 3.72501C4.88333 3.49167 5.11233 3.31234 5.387 3.18701C5.66167 3.06167 5.94933 2.99934 6.25 3.00001H17.75C18.05 3.00001 18.3377 3.06267 18.613 3.18801C18.8883 3.31334 19.1173 3.49234 19.3 3.72501L20.55 5.25001C20.7 5.43334 20.8127 5.63334 20.888 5.85001C20.9633 6.06667 21.0007 6.29167 21 6.52501V19C21 19.55 20.8043 20.021 20.413 20.413C20.0217 20.805 19.5507 21.0007 19 21H5ZM5.4 6.00001H18.6L17.75 5.00001H6.25L5.4 6.00001Z"/>
        </g>
    </symbol>

    <symbol id="arrow-double-down" viewBox="0 0 20 20" xmlns="http://www.w3.org/2000/svg">
        <g>
        <path d="M9.589 15.1096L15.7258 8.66228C15.9346 8.44298 16.1781 8.33684 16.4564 8.34386C16.7347 8.35088 16.9782 8.46433 17.187 8.68421C17.3957 8.9041 17.5001 9.15994 17.5001 9.45176C17.5001 9.74357 17.3957 9.99942 17.187 10.2193L10.7788 16.9737C10.6118 17.1491 10.4239 17.2807 10.2152 17.3684C10.0065 17.4561 9.79773 17.5 9.589 17.5C9.38026 17.5 9.17153 17.4561 8.96279 17.3684C8.75405 17.2807 8.56619 17.1491 8.3992 16.9737L1.97014 10.2193C1.76141 10 1.66038 9.74035 1.66706 9.44035C1.67374 9.14035 1.78172 8.881 1.99102 8.66228C2.20031 8.44357 2.44383 8.33392 2.72159 8.33334C2.99935 8.33275 3.24287 8.4424 3.45217 8.66228L9.589 15.1096Z"/>
        <path d="M9.589 9.27631L15.7258 2.82894C15.9346 2.60964 16.1781 2.5035 16.4564 2.51052C16.7347 2.51754 16.9782 2.63099 17.187 2.85087C17.3957 3.07075 17.5001 3.3266 17.5001 3.61841C17.5001 3.91023 17.3957 4.16607 17.187 4.38596L10.7788 11.1403C10.6118 11.3158 10.4239 11.4474 10.2152 11.5351C10.0065 11.6228 9.79773 11.6667 9.589 11.6667C9.38026 11.6667 9.17153 11.6228 8.96279 11.5351C8.75405 11.4474 8.56619 11.3158 8.3992 11.1403L1.97014 4.38596C1.76141 4.16666 1.66038 3.90701 1.66706 3.60701C1.67374 3.30701 1.78172 3.04765 1.99102 2.82894C2.20031 2.61023 2.44383 2.50058 2.72159 2.49999C2.99935 2.49941 3.24287 2.60906 3.45217 2.82894L9.589 9.27631Z"/>
        </g>
    </symbol>

    <symbol id="arrow-down" viewBox="0 0 24 24" xmlns="http://www.w3.org/2000/svg">
        <g>
        <path d="M12.0001 14.4498L19.3501 7.0998C19.6001 6.8498 19.8918 6.7288 20.2251 6.7368C20.5584 6.7448 20.8501 6.87414 21.1001 7.1248C21.3501 7.37547 21.4751 7.66714 21.4751 7.9998C21.4751 8.33247 21.3501 8.62414 21.1001 8.8748L13.4251 16.5748C13.2251 16.7748 13.0001 16.9248 12.7501 17.0248C12.5001 17.1248 12.2501 17.1748 12.0001 17.1748C11.7501 17.1748 11.5001 17.1248 11.2501 17.0248C11.0001 16.9248 10.7751 16.7748 10.5751 16.5748L2.87509 8.8748C2.62509 8.6248 2.50409 8.3288 2.51209 7.9868C2.52009 7.6448 2.64942 7.34914 2.90009 7.0998C3.15076 6.85047 3.44242 6.72547 3.77509 6.7248C4.10776 6.72414 4.39942 6.84914 4.65009 7.0998L12.0001 14.4498Z"/>
        </g>
    </symbol>

    <symbol id="arrow-left" viewBox="0 0 24 24" xmlns="http://www.w3.org/2000/svg">
        <g>
        <path d="M9.5502 12.0001L16.9002 19.3501C17.1502 19.6001 17.2712 19.8918 17.2632 20.2251C17.2552 20.5584 17.1259 20.8501 16.8752 21.1001C16.6245 21.3501 16.3329 21.4751 16.0002 21.4751C15.6675 21.4751 15.3759 21.3501 15.1252 21.1001L7.4252 13.4251C7.2252 13.2251 7.0752 13.0001 6.9752 12.7501C6.8752 12.5001 6.8252 12.2501 6.8252 12.0001C6.8252 11.7501 6.8752 11.5001 6.9752 11.2501C7.0752 11.0001 7.2252 10.7751 7.4252 10.5751L15.1252 2.87509C15.3752 2.62509 15.6712 2.50409 16.0132 2.51209C16.3552 2.52009 16.6509 2.64942 16.9002 2.90009C17.1495 3.15076 17.2745 3.44242 17.2752 3.77509C17.2759 4.10776 17.1509 4.39942 16.9002 4.65009L9.5502 12.0001Z"/>
        </g>
    </symbol>

    <symbol id="arrow-right" viewBox="0 0 48 48" xmlns="http://www.w3.org/2000/svg">
        <g>
        <path d="M28.9001 24.0001L14.2001 9.30006C13.7001 8.80006 13.4581 8.21673 13.4741 7.55006C13.4901 6.88339 13.7488 6.30006 14.2501 5.80006C14.7514 5.30006 15.3348 5.05006 16.0001 5.05006C16.6654 5.05006 17.2488 5.30006 17.7501 5.80006L33.1501 21.1501C33.5501 21.5501 33.8501 22.0001 34.0501 22.5001C34.2501 23.0001 34.3501 23.5001 34.3501 24.0001C34.3501 24.5001 34.2501 25.0001 34.0501 25.5001C33.8501 26.0001 33.5501 26.4501 33.1501 26.8501L17.7501 42.2501C17.2501 42.7501 16.6581 42.9921 15.9741 42.9761C15.2901 42.9601 14.6988 42.7014 14.2001 42.2001C13.7014 41.6987 13.4514 41.1154 13.4501 40.4501C13.4488 39.7847 13.6988 39.2014 14.2001 38.7001L28.9001 24.0001Z"/>
        </g>
    </symbol>

    <symbol id="arrow-long-1" viewBox="0 0 41 19" xmlns="http://www.w3.org/2000/svg">
        <path d="M40.4473 14.5607C40.9394 14.31 41.1351 13.7078 40.8843 13.2157L36.7984 5.19665C36.5477 4.70456 35.9455 4.5089 35.4534 4.75963C34.9613 5.01036 34.7657 5.61254 35.0164 6.10463L38.6483 13.2327L31.5203 16.8646C31.0282 17.1153 30.8325 17.7175 31.0833 18.2096C31.334 18.7017 31.9362 18.8973 32.4282 18.6466L40.4473 14.5607ZM0.690983 1.95106L39.6843 14.6208L40.3023 12.7186L1.30902 0.0489435L0.690983 1.95106Z"/>
    </symbol>

    <symbol id="arrow-long-2" viewBox="0 0 40 17" xmlns="http://www.w3.org/2000/svg">
        <path d="M39.5371 6.40606C39.8133 5.92777 39.6494 5.31617 39.1711 5.04003L31.3769 0.540032C30.8986 0.26389 30.287 0.427764 30.0109 0.906057C29.7347 1.38435 29.8986 1.99594 30.3769 2.27208L37.3051 6.27208L33.3051 13.2003C33.0289 13.6786 33.1928 14.2902 33.6711 14.5663C34.1494 14.8425 34.761 14.6786 35.0371 14.2003L39.5371 6.40606ZM1.25882 16.9659L38.9299 6.87198L38.4123 4.94013L0.741181 15.0341L1.25882 16.9659Z"/>
    </symbol>

    <symbol id="cancel-in-round" viewBox="0 0 24 24" xmlns="http://www.w3.org/2000/svg">
        <g>
        <path fill-rule="evenodd" clip-rule="evenodd" fill="#FC8972" d="M12 2C6.47 2 2 6.47 2 12C2 17.53 6.47 22 12 22C17.53 22 22 17.53 22 12C22 6.47 17.53 2 12 2ZM12 20C7.59 20 4 16.41 4 12C4 7.59 7.59 4 12 4C16.41 4 20 7.59 20 12C20 16.41 16.41 20 12 20ZM12 10.59L15.59 7L17 8.41L13.41 12L17 15.59L15.59 17L12 13.41L8.41 17L7 15.59L10.59 12L7 8.41L8.41 7L12 10.59Z"/>
        </g>
    </symbol>

    <symbol id="chat-error-outline" viewBox="0 0 24 25" xmlns="http://www.w3.org/2000/svg">
        <g>
        <path d="M9.4 14.5L12 11.9L14.6 14.5L16 13.1L13.4 10.5L16 7.9L14.6 6.5L12 9.1L9.4 6.5L8 7.9L10.6 10.5L8 13.1L9.4 14.5ZM2 22.5V4.5C2 3.95 2.196 3.47933 2.588 3.088C2.98 2.69667 3.45067 2.50067 4 2.5H20C20.55 2.5 21.021 2.696 21.413 3.088C21.805 3.48 22.0007 3.95067 22 4.5V16.5C22 17.05 21.8043 17.521 21.413 17.913C21.0217 18.305 20.5507 18.5007 20 18.5H6L2 22.5ZM5.15 16.5H20V4.5H4V17.625L5.15 16.5Z"/>
        </g>
    </symbol>

    <symbol id="check-box" viewBox="0 0 24 24" xmlns="http://www.w3.org/2000/svg">
        <g>
        <path fill="#D0E8C5" d="M19 3H5C3.9 3 3 3.9 3 5V19C3 20.1 3.9 21 5 21H19C20.1 21 21 20.1 21 19V5C21 3.9 20.1 3 19 3ZM19 19H5V5H19V19ZM17.99 9L16.58 7.58L9.99 14.17L7.41 11.6L5.99 13.01L9.99 17L17.99 9Z"/>
        </g>
    </symbol>

    <symbol id="close" viewBox="0 0 24 24" xmlns="http://www.w3.org/2000/svg">
        <g>
        <path d="M11.9998 13.4L7.0998 18.3C6.91647 18.4834 6.68314 18.575 6.3998 18.575C6.11647 18.575 5.88314 18.4834 5.6998 18.3C5.51647 18.1167 5.4248 17.8834 5.4248 17.6C5.4248 17.3167 5.51647 17.0834 5.6998 16.9L10.5998 12L5.6998 7.10005C5.51647 6.91672 5.4248 6.68338 5.4248 6.40005C5.4248 6.11672 5.51647 5.88338 5.6998 5.70005C5.88314 5.51672 6.11647 5.42505 6.3998 5.42505C6.68314 5.42505 6.91647 5.51672 7.0998 5.70005L11.9998 10.6L16.8998 5.70005C17.0831 5.51672 17.3165 5.42505 17.5998 5.42505C17.8831 5.42505 18.1165 5.51672 18.2998 5.70005C18.4831 5.88338 18.5748 6.11672 18.5748 6.40005C18.5748 6.68338 18.4831 6.91672 18.2998 7.10005L13.3998 12L18.2998 16.9C18.4831 17.0834 18.5748 17.3167 18.5748 17.6C18.5748 17.8834 18.4831 18.1167 18.2998 18.3C18.1165 18.4834 17.8831 18.575 17.5998 18.575C17.3165 18.575 17.0831 18.4834 16.8998 18.3L11.9998 13.4Z"/>
        </g>
    </symbol>

    <symbol id="copy" viewBox="0 0 24 24" xmlns="http://www.w3.org/2000/svg">
        <g>
        <path d="M9 18C8.45 18 7.97933 17.8043 7.588 17.413C7.19667 17.0217 7.00067 16.5507 7 16V4C7 3.45 7.196 2.97933 7.588 2.588C7.98 2.19667 8.45067 2.00067 9 2H18C18.55 2 19.021 2.196 19.413 2.588C19.805 2.98 20.0007 3.45067 20 4V16C20 16.55 19.8043 17.021 19.413 17.413C19.0217 17.805 18.5507 18.0007 18 18H9ZM9 16H18V4H9V16ZM5 22C4.45 22 3.97933 21.8043 3.588 21.413C3.19667 21.0217 3.00067 20.5507 3 20V7C3 6.71667 3.096 6.47933 3.288 6.288C3.48 6.09667 3.71733 6.00067 4 6C4.28267 5.99933 4.52033 6.09533 4.713 6.288C4.90567 6.48067 5.00133 6.718 5 7V20H15C15.2833 20 15.521 20.096 15.713 20.288C15.905 20.48 16.0007 20.7173 16 21C15.9993 21.2827 15.9033 21.5203 15.712 21.713C15.5207 21.9057 15.2833 22.0013 15 22H5Z"/>
        </g>
    </symbol>

    <symbol id="donate" viewBox="0 0 24 25" xmlns="http://www.w3.org/2000/svg">
        <g>
        <path d="M8.4 21.5C6.88333 21.5 5.604 20.9793 4.562 19.938C3.52 18.8967 2.99933 17.6173 3 16.1C3 15.4667 3.10833 14.85 3.325 14.25C3.54167 13.65 3.85 13.1083 4.25 12.625L7.8 8.35L5.375 3.5H18.625L16.2 8.35L19.75 12.625C20.15 13.1083 20.4583 13.65 20.675 14.25C20.8917 14.85 21 15.4667 21 16.1C21 17.6167 20.475 18.896 19.425 19.938C18.375 20.98 17.1 21.5007 15.6 21.5H8.4ZM12 16.5C11.45 16.5 10.9793 16.3043 10.588 15.913C10.1967 15.5217 10.0007 15.0507 10 14.5C9.99933 13.9493 10.1953 13.4787 10.588 13.088C10.9807 12.6973 11.4513 12.5013 12 12.5C12.5487 12.4987 13.0197 12.6947 13.413 13.088C13.8063 13.4813 14.002 13.952 14 14.5C13.998 15.048 13.8023 15.519 13.413 15.913C13.0237 16.307 12.5527 16.5027 12 16.5ZM9.625 7.5H14.375L15.375 5.5H8.625L9.625 7.5ZM8.4 19.5H15.6C16.55 19.5 17.3543 19.171 18.013 18.513C18.6717 17.855 19.0007 17.0507 19 16.1C19 15.7 18.929 15.3127 18.787 14.938C18.645 14.5633 18.4493 14.2257 18.2 13.925L14.525 9.5H9.5L5.8 13.9C5.55 14.2 5.35433 14.5417 5.213 14.925C5.07167 15.3083 5.00067 15.7 5 16.1C5 17.05 5.32933 17.8543 5.988 18.513C6.64667 19.1717 7.45067 19.5007 8.4 19.5Z"/>
        </g>
    </symbol>

    <symbol id="edit" viewBox="0 0 24 24" xmlns="http://www.w3.org/2000/svg">
        <g>
        <path d="M5 19H6.425L16.2 9.225L14.775 7.8L5 17.575V19ZM4 21C3.71667 21 3.47933 20.904 3.288 20.712C3.09667 20.52 3.00067 20.2827 3 20V17.575C3 17.3083 3.05 17.054 3.15 16.812C3.25 16.57 3.39167 16.3577 3.575 16.175L16.2 3.575C16.4 3.39167 16.621 3.25 16.863 3.15C17.105 3.05 17.359 3 17.625 3C17.891 3 18.1493 3.05 18.4 3.15C18.6507 3.25 18.8673 3.4 19.05 3.6L20.425 5C20.625 5.18333 20.7707 5.4 20.862 5.65C20.9533 5.9 20.9993 6.15 21 6.4C21 6.66667 20.954 6.921 20.862 7.163C20.77 7.405 20.6243 7.62567 20.425 7.825L7.825 20.425C7.64167 20.6083 7.429 20.75 7.187 20.85C6.945 20.95 6.691 21 6.425 21H4ZM15.475 8.525L14.775 7.8L16.2 9.225L15.475 8.525Z"/>
        </g>
    </symbol>

    <symbol id="eye-outline" viewBox="0 0 24 24" xmlns="http://www.w3.org/2000/svg">
        <g>
        <path d="M21.8701 11.4999C21.2301 10.3899 17.7101 4.81987 11.7301 4.99987C6.20007 5.13987 3.00007 9.99987 2.13007 11.4999C2.0423 11.6519 1.99609 11.8243 1.99609 11.9999C1.99609 12.1754 2.0423 12.3479 2.13007 12.4999C2.76007 13.5899 6.13007 18.9999 12.0201 18.9999H12.2701C17.8001 18.8599 21.0101 13.9999 21.8701 12.4999C21.9578 12.3479 22.004 12.1754 22.004 11.9999C22.004 11.8243 21.9578 11.6519 21.8701 11.4999ZM12.2201 16.9999C7.91007 17.0999 5.10007 13.4099 4.22007 11.9999C5.22007 10.3899 7.83007 7.09987 11.8301 6.99987C16.1201 6.88987 18.9401 10.5899 19.8301 11.9999C18.8001 13.6099 16.2201 16.8999 12.2201 16.9999Z"/>
        <g>
        <path d="M12 8.5C11.3078 8.5 10.6311 8.70527 10.0555 9.08986C9.47993 9.47444 9.03133 10.0211 8.76642 10.6606C8.50152 11.3001 8.4322 12.0039 8.56725 12.6828C8.7023 13.3618 9.03564 13.9854 9.52513 14.4749C10.0146 14.9644 10.6383 15.2977 11.3172 15.4327C11.9961 15.5678 12.6999 15.4985 13.3394 15.2336C13.9789 14.9687 14.5256 14.5201 14.9101 13.9445C15.2947 13.3689 15.5 12.6922 15.5 12C15.5 11.0717 15.1313 10.1815 14.4749 9.52513C13.8185 8.86875 12.9283 8.5 12 8.5ZM12 13.5C11.7033 13.5 11.4133 13.412 11.1666 13.2472C10.92 13.0824 10.7277 12.8481 10.6142 12.574C10.5007 12.2999 10.4709 11.9983 10.5288 11.7074C10.5867 11.4164 10.7296 11.1491 10.9393 10.9393C11.1491 10.7296 11.4164 10.5867 11.7074 10.5288C11.9983 10.4709 12.2999 10.5006 12.574 10.6142C12.8481 10.7277 13.0824 10.92 13.2472 11.1666C13.412 11.4133 13.5 11.7033 13.5 12C13.5 12.3978 13.342 12.7794 13.0607 13.0607C12.7794 13.342 12.3978 13.5 12 13.5Z"/>
        <path d="M12 13.5C11.7033 13.5 11.4133 13.412 11.1666 13.2472C10.92 13.0824 10.7277 12.8481 10.6142 12.574C10.5007 12.2999 10.4709 11.9983 10.5288 11.7074C10.5867 11.4164 10.7296 11.1491 10.9393 10.9393C11.1491 10.7296 11.4164 10.5867 11.7074 10.5288C11.9983 10.4709 12.2999 10.5006 12.574 10.6142C12.8481 10.7277 13.0824 10.92 13.2472 11.1666C13.412 11.4133 13.5 11.7033 13.5 12C13.5 12.3978 13.342 12.7794 13.0607 13.0607C12.7794 13.342 12.3978 13.5 12 13.5Z"/>
        </g>
        </g>
    </symbol>

    <symbol id="eye-off-outline" viewBox="0 0 24 24" xmlns="http://www.w3.org/2000/svg">
        <g>
        <path d="M2 5.27L3.28 4L20 20.72L18.73 22L15.65 18.92C14.5 19.3 13.28 19.5 12 19.5C7 19.5 2.73 16.39 1 12C1.69 10.24 2.79 8.69 4.19 7.46L2 5.27ZM12 9C12.7956 9 13.5587 9.31607 14.1213 9.87868C14.6839 10.4413 15 11.2044 15 12C15.0005 12.3406 14.943 12.6787 14.83 13L11 9.17C11.3213 9.05698 11.6594 8.99949 12 9ZM12 4.5C17 4.5 21.27 7.61 23 12C22.1834 14.0729 20.7966 15.8723 19 17.19L17.58 15.76C18.9629 14.8034 20.0783 13.5091 20.82 12C20.0117 10.3499 18.7565 8.95963 17.1974 7.98735C15.6382 7.01508 13.8375 6.49976 12 6.5C10.91 6.5 9.84 6.68 8.84 7L7.3 5.47C8.74 4.85 10.33 4.5 12 4.5ZM3.18 12C3.98835 13.6501 5.24345 15.0404 6.80264 16.0126C8.36182 16.9849 10.1625 17.5002 12 17.5C12.69 17.5 13.37 17.43 14 17.29L11.72 15C11.0242 14.9254 10.3748 14.6149 9.87997 14.12C9.38512 13.6252 9.07458 12.9758 9 12.28L5.6 8.87C4.61 9.72 3.78 10.78 3.18 12Z"/>
        </g>
    </symbol>

    <symbol id="filter" viewBox="0 0 24 24" fill="none" xmlns="http://www.w3.org/2000/svg">
        <g>
        <path stroke-width="2" stroke-linecap="round" stroke-linejoin="round" d="M4 4H20V6.172C19.9999 6.70239 19.7891 7.21101 19.414 7.586L15 12V19L9 21V12.5L4.52 7.572C4.18545 7.20393 4.00005 6.7244 4 6.227V4Z"/>
        </g>
    </symbol>

    <symbol id="folder-off" viewBox="0 0 24 24" xmlns="http://www.w3.org/2000/svg">
        <g id="folder_off">
        <g>
        <path d="M20.655 5.29502H12.655L10.655 3.29502H7.82497L11.825 7.29502H20.655V16.465L22.415 18.225C22.565 17.945 22.655 17.635 22.655 17.295V7.29502C22.655 6.19502 21.755 5.29502 20.655 5.29502Z"/>
        <path d="M2.75497 1.39502L1.34497 2.80502L2.90497 4.36502C2.75497 4.64502 2.66497 4.95502 2.66497 5.29502L2.65497 17.295C2.65497 18.395 3.55497 19.295 4.65497 19.295H17.825L21.135 22.605L22.545 21.195L2.75497 1.39502ZM4.65497 17.295V6.12502L15.825 17.295H4.65497Z"/>
        </g>
        </g>
    </symbol>

    <symbol id="folder-open" viewBox="0 0 24 24" xmlns="http://www.w3.org/2000/svg">
        <g>
        <path d="M20 6H12L10 4H4C2.9 4 2.01 4.9 2.01 6L2 18C2 19.1 2.9 20 4 20H20C21.1 20 22 19.1 22 18V8C22 6.9 21.1 6 20 6ZM20 18H4V8H20V18Z"/>
        </g>
    </symbol>

    <symbol id="folder" viewBox="0 0 24 24" xmlns="http://www.w3.org/2000/svg">
        <g>
        <path d="M5.25 3.75C3.59315 3.75 2.25 5.09315 2.25 6.75V17.25C2.25 18.9069 3.59315 20.25 5.25 20.25H18.75C20.4069 20.25 21.75 18.9069 21.75 17.25V8.25C21.75 6.59315 20.4069 5.25 18.75 5.25H9.75C9.33579 5.25 9 4.91421 9 4.5C9 4.08579 8.66421 3.75 8.25 3.75H5.25ZM3.75 6.75C3.75 5.92157 4.42157 5.25 5.25 5.25H6.75C7.16421 5.25 7.5 5.58579 7.5 6C7.5 6.41421 7.83579 6.75 8.25 6.75H19.5C19.9142 6.75 20.25 7.08579 20.25 7.5C20.25 7.91421 19.9142 8.25 19.5 8.25H5.25C4.42157 8.25 3.75 7.57843 3.75 6.75ZM3.75 12.75C3.75 11.0931 5.09315 9.75 6.75 9.75H17.25C18.9069 9.75 20.25 11.0931 20.25 12.75V15.75C20.25 17.4069 18.9069 18.75 17.25 18.75H6.75C5.09315 18.75 3.75 17.4069 3.75 15.75V12.75Z"/>
        </g>
    </symbol>

    <symbol id="tabler-bucket-group" viewBox="0 0 18 20" fill="none"  xmlns="http://www.w3.org/2000/svg">
        <g>
        <path stroke-width="2" stroke-linecap="round" stroke-linejoin="round" d="M1 5C1 6.06087 1.84285 7.07828 3.34315 7.82843C4.84344 8.57857 6.87827 9 9 9C11.1217 9 13.1566 8.57857 14.6569 7.82843C16.1571 7.07828 17 6.06087 17 5C17 3.93913 16.1571 2.92172 14.6569 2.17157C13.1566 1.42143 11.1217 1 9 1C6.87827 1 4.84344 1.42143 3.34315 2.17157C1.84285 2.92172 1 3.93913 1 5Z"/>
        <path stroke-width="2" stroke-linecap="round" stroke-linejoin="round" d="M1 5C1 5.664 1.088 6.324 1.263 6.965L4 17C4.5 18.5 6.239 19 9 19C11.761 19 13.5 18.5 14 17C14.3333 16 15.2457 12.655 16.737 6.965C16.9112 6.32452 16.9997 5.66375 17 5"/>
        </g>
    </symbol>

    <symbol id="home-remote" viewBox="0 0 24 24" xmlns="http://www.w3.org/2000/svg">
        <g>
        <path d="M6 19H9V14C9 13.7167 9.096 13.4793 9.288 13.288C9.48 13.0967 9.71733 13.0007 10 13H14C14.2833 13 14.521 13.096 14.713 13.288C14.905 13.48 15.0007 13.7173 15 14V19H18V10L12 5.5L6 10V19ZM4 19V10C4 9.68333 4.071 9.38333 4.213 9.1C4.355 8.81667 4.55067 8.58333 4.8 8.4L10.8 3.9C11.15 3.63333 11.55 3.5 12 3.5C12.45 3.5 12.85 3.63333 13.2 3.9L19.2 8.4C19.45 8.58333 19.646 8.81667 19.788 9.1C19.93 9.38333 20.0007 9.68333 20 10V19C20 19.55 19.804 20.021 19.412 20.413C19.02 20.805 18.5493 21.0007 18 21H14C13.7167 21 13.4793 20.904 13.288 20.712C13.0967 20.52 13.0007 20.2827 13 20V15H11V20C11 20.2833 10.904 20.521 10.712 20.713C10.52 20.905 10.2827 21.0007 10 21H6C5.45 21 4.97933 20.8043 4.588 20.413C4.19667 20.0217 4.00067 19.5507 4 19Z"/>
        </g>
    </symbol>

    <symbol id="home-office-mix" viewBox="0 0 24 24" xmlns="http://www.w3.org/2000/svg">
        <g>
        <path d="M23 5V19C23 19.55 22.8043 20.021 22.413 20.413C22.0217 20.805 21.5507 21.0007 21 21H18C17.7167 21 17.4793 20.904 17.288 20.712C17.0967 20.52 17.0007 20.2827 17 20C16.9993 19.7173 17.0953 19.48 17.288 19.288C17.4807 19.096 17.718 19 18 19H21V5H12V5.5C12 5.78333 11.904 6.021 11.712 6.213C11.52 6.405 11.2827 6.50067 11 6.5C10.7173 6.49933 10.48 6.40333 10.288 6.212C10.096 6.02067 10 5.78333 10 5.5V4.95C10 4.41667 10.1917 3.95833 10.575 3.575C10.9583 3.19167 11.4167 3 11.95 3H21C21.55 3 22.021 3.196 22.413 3.588C22.805 3.98 23.0007 4.45067 23 5ZM1 12.025C1 11.6917 1.075 11.3833 1.225 11.1C1.375 10.8167 1.58333 10.5833 1.85 10.4L6.85 6.825C7.03333 6.69167 7.221 6.59567 7.413 6.537C7.605 6.47833 7.80067 6.44933 8 6.45C8.19933 6.45067 8.39533 6.48 8.588 6.538C8.78067 6.596 8.968 6.69167 9.15 6.825L14.15 10.4C14.4167 10.5833 14.625 10.8167 14.775 11.1C14.925 11.3833 15 11.6917 15 12.025V19C15 19.55 14.8043 20.021 14.413 20.413C14.0217 20.805 13.5507 21.0007 13 21H11C10.45 21 9.97933 20.8043 9.588 20.413C9.19667 20.0217 9.00067 19.5507 9 19V16H7V19C7 19.55 6.80433 20.021 6.413 20.413C6.02167 20.805 5.55067 21.0007 5 21H3C2.45 21 1.97933 20.8043 1.588 20.413C1.19667 20.0217 1.00067 19.5507 1 19V12.025ZM3 12V19H5V16C5 15.45 5.196 14.9793 5.588 14.588C5.98 14.1967 6.45067 14.0007 7 14H9C9.55 14 10.021 14.196 10.413 14.588C10.805 14.98 11.0007 15.4507 11 16V19H13V12L8 8.45L3 12ZM17.5 9H18.5C18.6333 9 18.75 8.95 18.85 8.85C18.95 8.75 19 8.63333 19 8.5V7.5C19 7.36667 18.95 7.25 18.85 7.15C18.75 7.05 18.6333 7 18.5 7H17.5C17.3667 7 17.25 7.05 17.15 7.15C17.05 7.25 17 7.36667 17 7.5V8.5C17 8.63333 17.05 8.75 17.15 8.85C17.25 8.95 17.3667 9 17.5 9ZM17.5 13H18.5C18.6333 13 18.75 12.95 18.85 12.85C18.95 12.75 19 12.6333 19 12.5V11.5C19 11.3667 18.95 11.25 18.85 11.15C18.75 11.05 18.6333 11 18.5 11H17.5C17.3667 11 17.25 11.05 17.15 11.15C17.05 11.25 17 11.3667 17 11.5V12.5C17 12.6333 17.05 12.75 17.15 12.85C17.25 12.95 17.3667 13 17.5 13ZM17.5 17H18.5C18.6333 17 18.75 16.95 18.85 16.85C18.95 16.75 19 16.6333 19 16.5V15.5C19 15.3667 18.95 15.25 18.85 15.15C18.75 15.05 18.6333 15 18.5 15H17.5C17.3667 15 17.25 15.05 17.15 15.15C17.05 15.25 17 15.3667 17 15.5V16.5C17 16.6333 17.05 16.75 17.15 16.85C17.25 16.95 17.3667 17 17.5 17Z"/>
        </g>
    </symbol>

    <symbol id="arrow-iconamoon-send" viewBox="0 0 25 25" fill="none" xmlns="http://www.w3.org/2000/svg">
        <g>
        <path stroke-width="2" stroke-linecap="round" stroke-linejoin="round" d="M5.50018 12.5L4.89618 7.063C4.72318 5.507 6.32518 4.364 7.74018 5.035L19.6842 10.693C21.2092 11.415 21.2092 13.585 19.6842 14.307L7.74018 19.966C6.32518 20.636 4.72318 19.494 4.89618 17.938L5.50018 12.5ZM5.50018 12.5H12.5002"/>
        </g>
    </symbol>

    <symbol id="location-office" viewBox="0 0 24 24" xmlns="http://www.w3.org/2000/svg">
        <g>
        <path d="M12 19.35C14.0333 17.4833 15.5417 15.7877 16.525 14.263C17.5083 12.7383 18 11.384 18 10.2C18 8.38333 17.421 6.896 16.263 5.738C15.105 4.58 13.684 4.00067 12 4C10.316 3.99933 8.89533 4.57867 7.738 5.738C6.58067 6.89733 6.00133 8.38467 6 10.2C6 11.3833 6.49167 12.7377 7.475 14.263C8.45833 15.7883 9.96667 17.484 12 19.35ZM12 21.325C11.7667 21.325 11.5333 21.2833 11.3 21.2C11.0667 21.1167 10.8583 20.9917 10.675 20.825C9.59167 19.825 8.63333 18.85 7.8 17.9C6.96667 16.95 6.271 16.0293 5.713 15.138C5.155 14.2467 4.73 13.3883 4.438 12.563C4.146 11.7377 4 10.95 4 10.2C4 7.7 4.80433 5.70833 6.413 4.225C8.02167 2.74167 9.884 2 12 2C14.116 2 15.9787 2.74167 17.588 4.225C19.1973 5.70833 20.0013 7.7 20 10.2C20 10.95 19.8543 11.7377 19.563 12.563C19.2717 13.3883 18.8467 14.2467 18.288 15.138C17.7293 16.0293 17.0333 16.95 16.2 17.9C15.3667 18.85 14.4083 19.825 13.325 20.825C13.1417 20.9917 12.9333 21.1167 12.7 21.2C12.4667 21.2833 12.2333 21.325 12 21.325ZM12 12C12.55 12 13.021 11.8043 13.413 11.413C13.805 11.0217 14.0007 10.5507 14 10C13.9993 9.44933 13.8037 8.97867 13.413 8.588C13.0223 8.19733 12.5513 8.00133 12 8C11.4487 7.99867 10.978 8.19467 10.588 8.588C10.198 8.98133 10.002 9.452 10 10C9.998 10.548 10.194 11.019 10.588 11.413C10.982 11.807 11.4527 12.0027 12 12Z"/>
        </g>
    </symbol>

    <symbol id="log-out" viewBox="0 0 40 40" xmlns="http://www.w3.org/2000/svg">
        <g>
        <path d="M8.33333 35C7.41667 35 6.63222 34.6739 5.98 34.0217C5.32778 33.3694 5.00111 32.5844 5 31.6667V8.33333C5 7.41667 5.32667 6.63222 5.98 5.98C6.63333 5.32778 7.41778 5.00111 8.33333 5H20V8.33333H8.33333V31.6667H20V35H8.33333ZM26.6667 28.3333L24.375 25.9167L28.625 21.6667H15V18.3333H28.625L24.375 14.0833L26.6667 11.6667L35 20L26.6667 28.3333Z"/>
        </g>
    </symbol>

    <symbol id="note" viewBox="0 0 40 40" xmlns="http://www.w3.org/2000/svg">
        <g>
        <path d="M10.0003 36.6666C9.08366 36.6666 8.29921 36.3405 7.64699 35.6883C6.99477 35.036 6.6681 34.251 6.66699 33.3333V6.66659C6.66699 5.74992 6.99366 4.96547 7.64699 4.31325C8.30033 3.66103 9.08477 3.33436 10.0003 3.33325H21.9587C22.4031 3.33325 22.827 3.41659 23.2303 3.58325C23.6337 3.74992 23.9875 3.98603 24.292 4.29159L32.3753 12.3749C32.6809 12.6805 32.917 13.0349 33.0837 13.4383C33.2503 13.8416 33.3337 14.2649 33.3337 14.7083V33.3333C33.3337 34.2499 33.0075 35.0349 32.3553 35.6883C31.7031 36.3416 30.9181 36.6677 30.0003 36.6666H10.0003ZM21.667 13.3333V6.66659H10.0003V33.3333H30.0003V14.9999H23.3337C22.8614 14.9999 22.4659 14.8399 22.147 14.5199C21.8281 14.1999 21.6681 13.8044 21.667 13.3333Z"/>
        </g>
    </symbol>

    <symbol id="notification" viewBox="0 0 24 24" xmlns="http://www.w3.org/2000/svg">
        <g>
        <path d="M5 19C4.71667 19 4.47934 18.904 4.288 18.712C4.09667 18.52 4.00067 18.2827 4 18C3.99934 17.7173 4.09534 17.48 4.288 17.288C4.48067 17.096 4.718 17 5 17H6V10C6 8.61667 6.41667 7.38767 7.25 6.313C8.08334 5.23834 9.16667 4.534 10.5 4.2V3.5C10.5 3.08334 10.646 2.72934 10.938 2.438C11.23 2.14667 11.584 2.00067 12 2C12.416 1.99934 12.7703 2.14534 13.063 2.438C13.3557 2.73067 13.5013 3.08467 13.5 3.5V4.2C14.8333 4.53334 15.9167 5.23767 16.75 6.313C17.5833 7.38834 18 8.61734 18 10V17H19C19.2833 17 19.521 17.096 19.713 17.288C19.905 17.48 20.0007 17.7173 20 18C19.9993 18.2827 19.9033 18.5203 19.712 18.713C19.5207 18.9057 19.2833 19.0013 19 19H5ZM12 22C11.45 22 10.9793 21.8043 10.588 21.413C10.1967 21.0217 10.0007 20.5507 10 20H14C14 20.55 13.8043 21.021 13.413 21.413C13.0217 21.805 12.5507 22.0007 12 22ZM8 17H16V10C16 8.9 15.6083 7.95834 14.825 7.175C14.0417 6.39167 13.1 6 12 6C10.9 6 9.95834 6.39167 9.175 7.175C8.39167 7.95834 8 8.9 8 10V17Z"/>
        </g>
    </symbol>

    <symbol id="plus" viewBox="0 0 24 24" xmlns="http://www.w3.org/2000/svg">
        <g>
        <path d="M18 12.998H13V17.998C13 18.2632 12.8946 18.5176 12.7071 18.7051C12.5196 18.8926 12.2652 18.998 12 18.998C11.7348 18.998 11.4804 18.8926 11.2929 18.7051C11.1054 18.5176 11 18.2632 11 17.998V12.998H6C5.73478 12.998 5.48043 12.8926 5.29289 12.7051C5.10536 12.5176 5 12.2632 5 11.998C5 11.7328 5.10536 11.4784 5.29289 11.2909C5.48043 11.1034 5.73478 10.998 6 10.998H11V5.998C11 5.73278 11.1054 5.47843 11.2929 5.29089C11.4804 5.10336 11.7348 4.998 12 4.998C12.2652 4.998 12.5196 5.10336 12.7071 5.29089C12.8946 5.47843 13 5.73278 13 5.998V10.998H18C18.2652 10.998 18.5196 11.1034 18.7071 11.2909C18.8946 11.4784 19 11.7328 19 11.998C19 12.2632 18.8946 12.5176 18.7071 12.7051C18.5196 12.8926 18.2652 12.998 18 12.998Z"/>
        </g>
    </symbol>

    <symbol id="search" viewBox="0 0 24 24" xmlns="http://www.w3.org/2000/svg">
        <g>
        <path d="M9.5 16C7.68333 16 6.146 15.3707 4.888 14.112C3.63 12.8533 3.00067 11.316 3 9.5C2.99933 7.684 3.62867 6.14667 4.888 4.888C6.14733 3.62933 7.68467 3 9.5 3C11.3153 3 12.853 3.62933 14.113 4.888C15.373 6.14667 16.002 7.684 16 9.5C16 10.2333 15.8833 10.925 15.65 11.575C15.4167 12.225 15.1 12.8 14.7 13.3L20.3 18.9C20.4833 19.0833 20.575 19.3167 20.575 19.6C20.575 19.8833 20.4833 20.1167 20.3 20.3C20.1167 20.4833 19.8833 20.575 19.6 20.575C19.3167 20.575 19.0833 20.4833 18.9 20.3L13.3 14.7C12.8 15.1 12.225 15.4167 11.575 15.65C10.925 15.8833 10.2333 16 9.5 16ZM9.5 14C10.75 14 11.8127 13.5627 12.688 12.688C13.5633 11.8133 14.0007 10.7507 14 9.5C13.9993 8.24933 13.562 7.187 12.688 6.313C11.814 5.439 10.7513 5.00133 9.5 5C8.24867 4.99867 7.18633 5.43633 6.313 6.313C5.43967 7.18967 5.002 8.252 5 9.5C4.998 10.748 5.43567 11.8107 6.313 12.688C7.19033 13.5653 8.25267 14.0027 9.5 14Z"/>
        </g>
    </symbol>

    <symbol id="settings" viewBox="0 0 24 24" xmlns="http://www.w3.org/2000/svg">
        <g>
        <path d="M9.25 22L8.85 18.8C8.63333 18.7167 8.42933 18.6167 8.238 18.5C8.04666 18.3833 7.859 18.2583 7.675 18.125L4.7 19.375L1.95 14.625L4.525 12.675C4.50833 12.5583 4.5 12.446 4.5 12.338V11.663C4.5 11.5543 4.50833 11.4417 4.525 11.325L1.95 9.375L4.7 4.625L7.675 5.875C7.85833 5.74167 8.05 5.61667 8.25 5.5C8.45 5.38333 8.65 5.28333 8.85 5.2L9.25 2H14.75L15.15 5.2C15.3667 5.28333 15.571 5.38333 15.763 5.5C15.955 5.61667 16.1423 5.74167 16.325 5.875L19.3 4.625L22.05 9.375L19.475 11.325C19.4917 11.4417 19.5 11.5543 19.5 11.663V12.337C19.5 12.4457 19.4833 12.5583 19.45 12.675L22.025 14.625L19.275 19.375L16.325 18.125C16.1417 18.2583 15.95 18.3833 15.75 18.5C15.55 18.6167 15.35 18.7167 15.15 18.8L14.75 22H9.25ZM11 20H12.975L13.325 17.35C13.8417 17.2167 14.321 17.021 14.763 16.763C15.205 16.505 15.609 16.1923 15.975 15.825L18.45 16.85L19.425 15.15L17.275 13.525C17.3583 13.2917 17.4167 13.046 17.45 12.788C17.4833 12.53 17.5 12.2673 17.5 12C17.5 11.7327 17.4833 11.4703 17.45 11.213C17.4167 10.9557 17.3583 10.7097 17.275 10.475L19.425 8.85L18.45 7.15L15.975 8.2C15.6083 7.81667 15.2043 7.496 14.763 7.238C14.3217 6.98 13.8423 6.784 13.325 6.65L13 4H11.025L10.675 6.65C10.1583 6.78333 9.67933 6.97933 9.238 7.238C8.79666 7.49667 8.39233 7.809 8.025 8.175L5.55 7.15L4.575 8.85L6.725 10.45C6.64166 10.7 6.58333 10.95 6.55 11.2C6.51666 11.45 6.5 11.7167 6.5 12C6.5 12.2667 6.51666 12.525 6.55 12.775C6.58333 13.025 6.64166 13.275 6.725 13.525L4.575 15.15L5.55 16.85L8.025 15.8C8.39166 16.1833 8.796 16.5043 9.238 16.763C9.68 17.0217 10.159 17.2173 10.675 17.35L11 20ZM12.05 15.5C13.0167 15.5 13.8417 15.1583 14.525 14.475C15.2083 13.7917 15.55 12.9667 15.55 12C15.55 11.0333 15.2083 10.2083 14.525 9.525C13.8417 8.84167 13.0167 8.5 12.05 8.5C11.0667 8.5 10.2373 8.84167 9.562 9.525C8.88666 10.2083 8.54933 11.0333 8.55 12C8.55066 12.9667 8.88833 13.7917 9.563 14.475C10.2377 15.1583 11.0667 15.5 12.05 15.5Z"/>
        </g>
    </symbol>

    <symbol id="statistics" viewBox="0 0 40 40" xmlns="http://www.w3.org/2000/svg">
        <g>
        <path d="M26.667 33.3334V21.6667H33.3337V33.3334H26.667ZM16.667 33.3334V6.66675H23.3337V33.3334H16.667ZM6.66699 33.3334V15.0001H13.3337V33.3334H6.66699Z"/>
        </g>
    </symbol>

    <symbol id="vacancy" viewBox="0 0 40 40" xmlns="http://www.w3.org/2000/svg">
        <g>
        <path d="M10 36.6666C8.61111 36.6666 7.43056 36.1805 6.45833 35.2083C5.48611 34.236 5 33.0555 5 31.6666V29.9999C5 29.0833 5.32667 28.2988 5.98 27.6466C6.63333 26.9944 7.41778 26.6677 8.33333 26.6666H10V6.66659C10 5.74992 10.3267 4.96547 10.98 4.31325C11.6333 3.66103 12.4178 3.33436 13.3333 3.33325H31.6667C32.5833 3.33325 33.3683 3.65992 34.0217 4.31325C34.675 4.96659 35.0011 5.75103 35 6.66659V31.6666C35 33.0555 34.5139 34.236 33.5417 35.2083C32.5694 36.1805 31.3889 36.6666 30 36.6666H10ZM30 33.3333C30.4722 33.3333 30.8683 33.1733 31.1883 32.8533C31.5083 32.5333 31.6678 32.1377 31.6667 31.6666V6.66659H13.3333V26.6666H25C25.9167 26.6666 26.7017 26.9932 27.355 27.6466C28.0083 28.2999 28.3344 29.0844 28.3333 29.9999V31.6666C28.3333 32.1388 28.4933 32.5349 28.8133 32.8549C29.1333 33.1749 29.5289 33.3344 30 33.3333ZM16.6667 14.9999C16.1944 14.9999 15.7989 14.8399 15.48 14.5199C15.1611 14.1999 15.0011 13.8044 15 13.3333C14.9989 12.8621 15.1589 12.4666 15.48 12.1466C15.8011 11.8266 16.1967 11.6666 16.6667 11.6666H28.3333C28.8056 11.6666 29.2017 11.8266 29.5217 12.1466C29.8417 12.4666 30.0011 12.8621 30 13.3333C29.9989 13.8044 29.8389 14.2005 29.52 14.5216C29.2011 14.8427 28.8056 15.0021 28.3333 14.9999H16.6667ZM16.6667 19.9999C16.1944 19.9999 15.7989 19.8399 15.48 19.5199C15.1611 19.1999 15.0011 18.8044 15 18.3333C14.9989 17.8621 15.1589 17.4666 15.48 17.1466C15.8011 16.8266 16.1967 16.6666 16.6667 16.6666H28.3333C28.8056 16.6666 29.2017 16.8266 29.5217 17.1466C29.8417 17.4666 30.0011 17.8621 30 18.3333C29.9989 18.8044 29.8389 19.2005 29.52 19.5216C29.2011 19.8427 28.8056 20.0021 28.3333 19.9999H16.6667ZM10 33.3333H25V29.9999H8.33333V31.6666C8.33333 32.1388 8.49333 32.5349 8.81333 32.8549C9.13333 33.1749 9.52889 33.3344 10 33.3333ZM10 33.3333H8.33333H25H10Z"/>
        </g>
    </symbol>

    <symbol id="vector-curved-62" viewBox="0 0 96 35" xmlns="http://www.w3.org/2000/svg">
        <path d="M95.3536 31.3536C95.5488 31.1583 95.5488 30.8417 95.3536 30.6464L92.1716 27.4645C91.9763 27.2692 91.6597 27.2692 91.4645 27.4645C91.2692 27.6597 91.2692 27.9763 91.4645 28.1716L94.2929 31L91.4645 33.8284C91.2692 34.0237 91.2692 34.3403 91.4645 34.5355C91.6597 34.7308 91.9763 34.7308 92.1716 34.5355L95.3536 31.3536ZM0.5 0C0.5 7.86722 2.98011 13.8159 7.60585 18.2816C12.2141 22.7304 18.9081 25.6649 27.2615 27.6119C43.956 31.5031 67.5252 31.5 95 31.5V30.5C67.4748 30.5 44.044 30.4969 27.4885 26.6381C19.2169 24.7101 12.7234 21.8321 8.3004 17.5622C3.89489 13.3091 1.5 7.63278 1.5 0L0.5 0Z"/>
    </symbol>

    <symbol id="vector-curved-63" viewBox="0 0 76 34" xmlns="http://www.w3.org/2000/svg">
        <path d="M75.3535 4.35355C75.5488 4.15829 75.5488 3.84171 75.3535 3.64645L72.1716 0.464466C71.9763 0.269204 71.6597 0.269204 71.4644 0.464466C71.2692 0.659728 71.2692 0.976311 71.4644 1.17157L74.2929 4L71.4645 6.82843C71.2692 7.02369 71.2692 7.34027 71.4645 7.53553C71.6597 7.7308 71.9763 7.7308 72.1716 7.53553L75.3535 4.35355ZM1.5 34C1.5 26.5573 2.89617 21.0455 5.73169 16.9404C8.56313 12.8413 12.8743 10.0808 18.8359 8.22745C24.8059 6.37149 32.396 5.43629 41.7359 4.96812C51.0723 4.50013 62.1209 4.5 75 4.5V3.5C62.1291 3.5 51.0526 3.49986 41.6858 3.96938C32.3226 4.43871 24.6315 5.3785 18.539 7.27254C12.4381 9.16919 7.90556 12.0337 4.9089 16.3721C1.91631 20.7045 0.5 26.4426 0.5 34H1.5Z"/>
    </symbol>

</svg>