<svg width="94" height="52" viewBox="0 0 94 52" fill="none" xmlns="http://www.w3.org/2000/svg">
<path d="M23.375 2.54699L20.7855 0.462174C20.3599 0.120476 19.8117 -0.0423397 19.2609 0.00943133C18.7102 0.0612024 18.2019 0.323334 17.8476 0.738343L1.60826 19.8045C1.5639 19.8566 1.53287 19.9194 1.51034 19.9854C1.50739 19.9977 1.50037 20.0103 1.49742 20.0226C1.4941 20.0309 1.4867 20.0396 1.48745 20.0475L0.0131158 26.6276C-0.0329903 26.8356 0.0448392 27.052 0.20918 27.1843C0.329476 27.2848 0.485621 27.33 0.636178 27.3159C0.693145 27.3105 0.753436 27.2968 0.808541 27.2717L7.18607 24.6355C7.19383 24.6308 7.2016 24.626 7.21343 24.6209C7.22527 24.6158 7.23673 24.6068 7.24857 24.6017C7.31106 24.5678 7.36468 24.5268 7.40904 24.4748L23.648 5.40465C24.0025 4.98396 24.1746 4.45661 24.1239 3.91825C24.0732 3.37989 23.8054 2.8899 23.375 2.54699ZM16.2349 4.40825L17.785 5.65628L4.43302 21.336L2.88289 20.088L16.2349 4.40825ZM1.39615 25.7948L2.42564 21.2053L5.84126 23.9552L1.39615 25.7948ZM6.88074 23.3104L5.33061 22.0624L18.6866 6.38221L20.2368 7.63023L6.88074 23.3104ZM22.7467 4.68268L20.9872 6.74901L16.9897 3.5306L18.7493 1.46427C19.0709 1.0866 19.6483 1.02833 20.0392 1.34302L22.6286 3.42783C22.8152 3.57802 22.9341 3.79448 22.9561 4.02803C22.978 4.26158 22.9016 4.4964 22.7467 4.68268Z" fill="#333333"/>
<path d="M74.0642 23.4527V0.705086H76.8007V23.4527H74.0642Z" fill="#333333"/>
<path d="M86.5633 30.4832C85.2541 30.4832 83.9878 30.3008 82.7645 29.9362C81.5626 29.5715 80.4788 28.9388 79.513 28.0379L80.7041 25.8821C81.5411 26.5471 82.4318 27.0726 83.3762 27.4587C84.342 27.8448 85.3507 28.0379 86.4023 28.0379C88.1623 28.0379 89.4178 27.5231 90.169 26.4935C90.9416 25.4853 91.3279 24.1983 91.3279 22.6325V20.6055C90.9416 21.1846 90.448 21.6672 89.847 22.0533C89.2676 22.418 88.6237 22.6968 87.9154 22.8899C87.2072 23.0615 86.4775 23.1473 85.7263 23.1473C84.0522 23.1473 82.7323 22.8148 81.7665 22.1499C80.8007 21.4849 80.1139 20.5626 79.7061 19.3828C79.2983 18.2031 79.0944 16.841 79.0944 15.2966V5.9337H81.8309V14.5244C81.8309 15.2966 81.8738 16.0581 81.9597 16.8088C82.067 17.5381 82.2709 18.2031 82.5713 18.8037C82.8718 19.3828 83.3118 19.8547 83.8913 20.2194C84.4707 20.5626 85.2434 20.7342 86.2092 20.7342C87.4325 20.7342 88.4091 20.4339 89.1388 19.8333C89.89 19.2327 90.4265 18.4283 90.7485 17.4201C91.0919 16.412 91.2636 15.2966 91.2636 14.074V5.9337H94V22.8899C94 24.1125 93.839 25.1958 93.5171 26.1395C93.1952 27.0833 92.7123 27.877 92.0684 28.5205C91.4245 29.164 90.6412 29.6466 89.7183 29.9684C88.8169 30.3116 87.7652 30.4832 86.5633 30.4832Z" fill="#333333"/>
<path d="M56.5587 29.1962V6.12676H59.1663L59.2951 8.66857C59.8746 7.78913 60.6579 7.11345 61.6452 6.64155C62.6539 6.16965 63.7378 5.9337 64.8968 5.9337C66.6137 5.9337 68.0195 6.3198 69.1141 7.092C70.2087 7.84275 71.0135 8.87235 71.5286 10.1808C72.0652 11.4892 72.3334 12.9693 72.3334 14.6209C72.3334 16.2726 72.0652 17.7526 71.5286 19.0611C70.992 20.3695 70.1657 21.3991 69.0497 22.1499C67.9337 22.9006 66.5064 23.276 64.768 23.276C63.9095 23.276 63.1368 23.1902 62.4501 23.0186C61.7633 22.8255 61.1623 22.5574 60.6472 22.2142C60.1321 21.8496 59.6814 21.4313 59.2951 20.9594V29.1962H56.5587ZM64.5426 20.8629C65.7874 20.8629 66.7747 20.584 67.5044 20.0263C68.2341 19.4472 68.76 18.6857 69.0819 17.7419C69.4253 16.7981 69.597 15.7578 69.597 14.6209C69.597 13.4626 69.4253 12.4116 69.0819 11.4678C68.76 10.524 68.2234 9.77324 67.4722 9.21555C66.721 8.65785 65.723 8.379 64.4782 8.379C63.3622 8.379 62.4071 8.66857 61.613 9.24772C60.8404 9.80542 60.2502 10.5669 59.8424 11.5321C59.4346 12.4759 59.2307 13.5163 59.2307 14.6531C59.2307 15.8329 59.4239 16.8946 59.8102 17.8384C60.1965 18.7822 60.7867 19.5222 61.5808 20.0585C62.3749 20.5947 63.3622 20.8629 64.5426 20.8629Z" fill="#333333"/>
<path d="M38.8527 29.1962V6.12676H41.4603L41.5891 8.66857C42.1686 7.78913 42.952 7.11345 43.9392 6.64155C44.948 6.16965 46.0318 5.9337 47.1908 5.9337C48.9077 5.9337 50.3135 6.3198 51.4081 7.092C52.5027 7.84275 53.3075 8.87235 53.8226 10.1808C54.3592 11.4892 54.6274 12.9693 54.6274 14.6209C54.6274 16.2726 54.3592 17.7526 53.8226 19.0611C53.286 20.3695 52.4598 21.3991 51.3437 22.1499C50.2277 22.9006 48.8004 23.276 47.062 23.276C46.2035 23.276 45.4309 23.1902 44.7441 23.0186C44.0573 22.8255 43.4563 22.5574 42.9412 22.2142C42.4261 21.8496 41.9754 21.4313 41.5891 20.9594V29.1962H38.8527ZM46.8366 20.8629C48.0814 20.8629 49.0687 20.584 49.7984 20.0263C50.5281 19.4472 51.054 18.6857 51.3759 17.7419C51.7193 16.7981 51.891 15.7578 51.891 14.6209C51.891 13.4626 51.7193 12.4116 51.3759 11.4678C51.054 10.524 50.5174 9.77324 49.7662 9.21555C49.0151 8.65785 48.0171 8.379 46.7722 8.379C45.6562 8.379 44.7011 8.66857 43.907 9.24772C43.1344 9.80542 42.5442 10.5669 42.1364 11.5321C41.7286 12.4759 41.5247 13.5163 41.5247 14.6531C41.5247 15.8329 41.7179 16.8946 42.1042 17.8384C42.4905 18.7822 43.0807 19.5222 43.8748 20.0585C44.6689 20.5947 45.6562 20.8629 46.8366 20.8629Z" fill="#333333"/>
<path d="M28.3733 23.276C27.6007 23.276 26.8495 23.1795 26.1198 22.9864C25.4115 22.7719 24.7676 22.4609 24.1882 22.0533C23.6301 21.6243 23.1794 21.0988 22.836 20.4768C22.5141 19.8333 22.3531 19.0932 22.3531 18.2567C22.3531 17.2914 22.5248 16.4764 22.8682 15.8114C23.2331 15.1465 23.716 14.6209 24.3169 14.2348C24.9179 13.8487 25.6154 13.5699 26.4095 13.3983C27.2036 13.2267 28.0299 13.1409 28.8884 13.1409H33.8784C33.8784 12.1756 33.7389 11.3391 33.4599 10.6312C33.2023 9.92339 32.7731 9.37642 32.1721 8.99032C31.5712 8.58277 30.7771 8.379 29.7898 8.379C29.1889 8.379 28.6309 8.44335 28.1158 8.57205C27.6007 8.70075 27.1607 8.90452 26.7958 9.18337C26.431 9.46222 26.1627 9.83759 25.991 10.3095H23.0614C23.2116 9.5373 23.5014 8.88307 23.9306 8.34682C24.3813 7.78912 24.9179 7.33868 25.5403 6.99548C26.1842 6.63083 26.8709 6.3627 27.6007 6.1911C28.3304 6.0195 29.0601 5.9337 29.7898 5.9337C32.2365 5.9337 33.975 6.65228 35.0052 8.08942C36.0353 9.52657 36.5504 11.4678 36.5504 13.9131V23.0829H34.2647L34.1037 20.9272C33.6316 21.5707 33.0628 22.0641 32.3975 22.4073C31.7322 22.7505 31.0454 22.9757 30.3371 23.0829C29.6503 23.2116 28.9957 23.276 28.3733 23.276ZM28.6309 20.8629C29.704 20.8629 30.6269 20.6913 31.3995 20.3481C32.1936 19.9834 32.8053 19.4579 33.2345 18.7715C33.6638 18.0851 33.8784 17.2486 33.8784 16.2619V15.4253H30.8844C30.1761 15.4253 29.4786 15.436 28.7918 15.4575C28.105 15.4789 27.4826 15.5647 26.9246 15.7149C26.3666 15.865 25.9159 16.1224 25.5725 16.4871C25.2505 16.8517 25.0896 17.3772 25.0896 18.0636C25.0896 18.7071 25.2505 19.2327 25.5725 19.6402C25.9159 20.0478 26.3559 20.3588 26.8924 20.5733C27.4504 20.7663 28.0299 20.8629 28.6309 20.8629Z" fill="#333333"/>
<path d="M74.5795 52C72.7766 52 71.285 51.6354 70.1046 50.9061C68.9242 50.1553 68.0442 49.1257 67.4647 47.8173C66.8853 46.5088 66.5955 45.018 66.5955 43.345C66.5955 41.6504 66.896 40.1596 67.4969 38.8726C68.1193 37.5642 69.0208 36.5346 70.2012 35.7838C71.3816 35.0331 72.8303 34.6577 74.5473 34.6577C75.878 34.6577 77.0154 34.9151 77.9598 35.4299C78.9256 35.9233 79.7197 36.5882 80.3421 37.4248C80.9645 38.2613 81.4152 39.1837 81.6942 40.1918C81.9732 41.1785 82.0913 42.1759 82.0484 43.1841C82.0269 43.3771 82.0054 43.5702 81.984 43.7632C81.984 43.9563 81.9732 44.1493 81.9518 44.3424H69.3642C69.45 45.3291 69.6968 46.2192 70.1046 47.0129C70.5124 47.8065 71.0919 48.4393 71.843 48.9112C72.5942 49.3617 73.5278 49.5869 74.6439 49.5869C75.2019 49.5869 75.7599 49.5225 76.3179 49.3938C76.8974 49.2437 77.4125 48.997 77.8632 48.6538C78.3354 48.3106 78.6681 47.8494 78.8612 47.2703H81.662C81.4045 48.3642 80.9216 49.2651 80.2133 49.973C79.5051 50.6594 78.6573 51.1742 77.6701 51.5174C76.6828 51.8391 75.6526 52 74.5795 52ZM69.4285 41.9614H79.2475C79.2261 40.9962 79.0115 40.1489 78.6037 39.4196C78.1959 38.6903 77.6379 38.1219 76.9296 37.7143C76.2428 37.3068 75.4165 37.103 74.4507 37.103C73.3991 37.103 72.5084 37.3282 71.7787 37.7787C71.0704 38.2291 70.5231 38.819 70.1368 39.5483C69.7505 40.2776 69.5144 41.082 69.4285 41.9614Z" fill="#333333"/>
<path d="M12.9136 51.807V34.8508H15.5535L15.6822 37.4891C16.1115 36.8242 16.6051 36.2879 17.1631 35.8804C17.7426 35.4728 18.3758 35.1725 19.0626 34.9795C19.7708 34.765 20.5327 34.6577 21.3483 34.6577C21.4985 34.6577 21.638 34.6577 21.7668 34.6577C21.917 34.6577 22.0673 34.6577 22.2175 34.6577V37.2317H21.2195C19.8889 37.2317 18.805 37.5213 17.968 38.1004C17.1524 38.6581 16.5622 39.4196 16.1973 40.3849C15.8325 41.3287 15.6501 42.3797 15.6501 43.538V51.807H12.9136Z" fill="#333333"/>
<path d="M83.5941 51.807V34.8508H86.234L86.3628 37.4891C86.792 36.8242 87.2856 36.2879 87.8437 35.8804C88.4231 35.4728 89.0563 35.1725 89.7431 34.9795C90.4513 34.765 91.2132 34.6577 92.0288 34.6577C92.179 34.6577 92.3186 34.6577 92.4473 34.6577C92.5976 34.6577 92.7478 34.6577 92.898 34.6577V37.2317H91.9C90.5694 37.2317 89.4855 37.5213 88.6485 38.1004C87.8329 38.6581 87.2427 39.4196 86.8779 40.3849C86.513 41.3287 86.3306 42.3797 86.3306 43.538V51.807H83.5941Z" fill="#333333"/>
<path d="M27.8428 52C27.0701 52 26.319 51.9035 25.5892 51.7104C24.881 51.4959 24.2371 51.1849 23.6576 50.7774C23.0996 50.3484 22.6489 49.8228 22.3055 49.2008C21.9836 48.5573 21.8226 47.8173 21.8226 46.9807C21.8226 46.0155 21.9943 45.2004 22.3377 44.5354C22.7026 43.8705 23.1855 43.345 23.7864 42.9589C24.3874 42.5728 25.0849 42.2939 25.879 42.1223C26.6731 41.9507 27.4994 41.8649 28.3579 41.8649H33.3479C33.3479 40.8997 33.2084 40.0631 32.9293 39.3553C32.6718 38.6474 32.2425 38.1004 31.6416 37.7143C31.0407 37.3068 30.2466 37.103 29.2593 37.103C28.6583 37.103 28.1003 37.1674 27.5852 37.2961C27.0701 37.4248 26.6302 37.6285 26.2653 37.9074C25.9004 38.1862 25.6322 38.5616 25.4605 39.0335H22.5309C22.6811 38.2613 22.9708 37.6071 23.4001 37.0708C23.8508 36.5131 24.3874 36.0627 25.0098 35.7195C25.6536 35.3549 26.3404 35.0867 27.0701 34.9151C27.7999 34.7435 28.5296 34.6577 29.2593 34.6577C31.706 34.6577 33.4444 35.3763 34.4746 36.8134C35.5048 38.2506 36.0199 40.1918 36.0199 42.6371V51.807H33.7342L33.5732 49.6512C33.101 50.2947 32.5323 50.7881 31.867 51.1313C31.2016 51.4745 30.5148 51.6997 29.8066 51.807C29.1198 51.9357 28.4652 52 27.8428 52ZM28.1003 49.5869C29.1734 49.5869 30.0963 49.4153 30.869 49.0721C31.6631 48.7074 32.2747 48.1819 32.704 47.4955C33.1332 46.8091 33.3479 45.9726 33.3479 44.9859V44.1493H30.3539C29.6456 44.1493 28.9481 44.16 28.2613 44.1815C27.5745 44.2029 26.9521 44.2887 26.3941 44.4389C25.8361 44.589 25.3853 44.8464 25.042 45.2111C24.72 45.5757 24.559 46.1013 24.559 46.7877C24.559 47.4312 24.72 47.9567 25.042 48.3642C25.3853 48.7718 25.8253 49.0828 26.3619 49.2973C26.9199 49.4904 27.4994 49.5869 28.1003 49.5869Z" fill="#333333"/>
<path d="M45.4039 52C43.6225 52 42.1416 51.6354 40.9612 50.9061C39.8022 50.1553 38.933 49.1257 38.3535 47.8173C37.7955 46.5088 37.5165 45.0288 37.5165 43.3771C37.5165 41.7684 37.8062 40.3098 38.3857 39.0013C38.9867 37.6714 39.8881 36.6204 41.09 35.8482C42.3133 35.0545 43.8586 34.6577 45.7258 34.6577C46.8848 34.6577 47.915 34.8508 48.8164 35.2369C49.7393 35.623 50.5012 36.1914 51.1021 36.9421C51.7031 37.6714 52.1216 38.5938 52.3577 39.7092H49.5569C49.2349 38.7654 48.7198 38.1004 48.0116 37.7143C47.3248 37.3068 46.5092 37.103 45.5649 37.103C44.2771 37.103 43.2469 37.4033 42.4743 38.0039C41.7017 38.6045 41.1329 39.3874 40.768 40.3527C40.4246 41.2965 40.253 42.3046 40.253 43.3771C40.253 44.4925 40.4354 45.5221 40.8002 46.4659C41.1651 47.4097 41.7338 48.1712 42.5065 48.7503C43.2791 49.308 44.2771 49.5869 45.5005 49.5869C46.4019 49.5869 47.2497 49.3938 48.0438 49.0077C48.8593 48.6216 49.3959 47.9352 49.6534 46.9485H52.4865C52.2718 48.1068 51.8104 49.0614 51.1021 49.8121C50.4153 50.5629 49.5676 51.1206 48.5589 51.4852C47.5716 51.8284 46.5199 52 45.4039 52Z" fill="#333333"/>
<path d="M53.8156 51.8071V29.0594H56.5521V42.1546H59.5138L64.6004 34.8509H67.691L62.0249 42.9268L68.1739 51.8071H64.9545L59.8358 44.5356H56.5521V51.8071H53.8156Z" fill="#333333"/>
<path d="M9.74176 51.8069C8.45402 51.8069 7.4131 51.6139 6.619 51.2278C5.84635 50.8417 5.2776 50.2411 4.91275 49.426C4.56935 48.6109 4.39765 47.5813 4.39765 46.3372V37.2639H1.62902V34.8507H4.39765V29.7993H7.13409V34.8507H11.6734V37.2639H7.13409V46.0476C7.13409 47.2059 7.33798 48.0639 7.74577 48.6216C8.17501 49.1579 9.0335 49.426 10.3212 49.426H11.5768V51.8069H9.74176Z" fill="#333333"/>
</svg>
